:SAMPLES-PER-SECOND 30
:FULLY-SPECIFIED
:DEGREES
252
root  39.5132 35.3311 8.98946 52.4873 88.8343 13.0452
RightUpLeg  -75.8403 -12.6924 11.9274
RightLeg  49.062 -4.61243 -6.03473
RightFoot  -10.906 -0.0557479 -4.70332
RightToes  0.00048216 0.542163 -0.142577
Spine  77.0647 -5.15812 6.49192
Spine1  -0.219283 0.796206 -6.54916
HEad  -45.9097 -7.31259 3.97028
LeftShoulder1  5.76131 -27.1773 -11.479
LeftArm  -98.4918 -64.4943 53.7423
LeftForeArm  -4.25885 -9.36671 -0.392106
LeftHand  -0.25398 0.0180481 5.50724
RightShoulder  1.62633 12.5279 1.95968
RightArm  -89.8962 60.6858 -36.8758
RightForeArm  -26.0591 4.05743 0.216739
RightHand  -0.319324 7.90452 -3.2597
LeftUpLeg  -79.8686 18.3328 -26.5202
LeftLeg  44.433 -1.50323 -1.17046
LeftFoot  -7.77081 -0.238283 9.13046
LeftToes  1.06246e-005 4.65855e-005 -8.185e-006
253
root  39.5652 35.1839 9.03649 58.0483 88.6708 18.1361
RightUpLeg  -76.7941 -12.3842 11.7905
RightLeg  50.0589 -4.79855 -6.48357
RightFoot  -11.2157 -0.0704673 -4.79871
RightToes  0.00048216 0.542163 -0.142577
Spine  76.8075 -4.43484 6.33861
Spine1  0.516634 1.04279 -5.08778
HEad  -46.5345 -7.44728 3.34396
LeftShoulder1  6.37911 -27.64 -13.29
LeftArm  -100.817 -64.4584 53.465
LeftForeArm  -5.27755 -11.8224 -0.239829
LeftHand  -0.25398 0.0180481 5.50724
RightShoulder  1.31158 11.474 0.42094
RightArm  -92.0687 60.8197 -36.1477
RightForeArm  -26.458 6.53263 0.076861
RightHand  -0.281767 9.2846 -2.72691
LeftUpLeg  -80.8422 18.1838 -26.8997
LeftLeg  45.3614 -1.3646 -1.06584
LeftFoot  -8.01682 -0.223115 9.33282
LeftToes  1.06246e-005 4.65855e-005 -8.185e-006
254
root  39.5955 35.0921 9.08553 66.748 88.5959 26.7206
RightUpLeg  -77.2706 -12.2933 11.603
RightLeg  50.798 -4.94387 -6.84233
RightFoot  -11.4445 -0.0817642 -4.96401
RightToes  0.00048216 0.542163 -0.142577
Spine  77.1042 -5.32965 6.24949
Spine1  0.715442 0.560752 -6.90056
HEad  -46.9254 -6.66995 4.46214
LeftShoulder1  5.57242 -26.6652 -11.1215
LeftArm  -103.076 -64.6176 50.0587
LeftForeArm  -3.73547 -14.8704 -0.306795
LeftHand  -0.25398 0.0180481 5.50724
RightShoulder  1.405 11.1347 1.35649
RightArm  -94.2118 61.2397 -35.0226
RightForeArm  -27.0253 9.75955 0.285811
RightHand  -0.244041 10.1798 -2.33574
LeftUpLeg  -81.2691 18.0627 -27.1626
LeftLeg  45.9743 -1.25293 -0.969802
LeftFoot  -7.99263 -0.236106 9.70007
LeftToes  1.06246e-005 4.65855e-005 -8.185e-006
255
root  39.6059 35.0593 9.1274 78.0347 88.6156 38.1109
RightUpLeg  -77.4269 -12.5627 11.6576
RightLeg  51.2019 -4.94737 -6.94605
RightFoot  -11.5475 -0.0874346 -5.27491
RightToes  0.00048216 0.542163 -0.142577
Spine  76.8041 -4.88604 6.21945
Spine1  1.7484 0.683066 -5.4243
HEad  -47.4792 -6.88945 3.77323
LeftShoulder1  6.40029 -26.8239 -13.9797
LeftArm  -106.959 -64.6298 50.9097
LeftForeArm  -0.64202 -17.4307 -1.55371
LeftHand  -0.25398 0.0180481 5.50724
RightShoulder  1.36977 10.8393 1.30632
RightArm  -94.7492 60.8734 -33.858
RightForeArm  -26.9165 13.0059 1.2137
RightHand  -0.131278 10.0397 -1.5017
LeftUpLeg  -81.277 17.8956 -27.1881
LeftLeg  46.2834 -1.21011 -0.934634
LeftFoot  -7.76356 -0.262967 9.8948
LeftToes  1.06246e-005 4.65855e-005 -8.185e-006
256
root  39.5937 35.0785 9.16615 85.9772 88.6901 46.1858
RightUpLeg  -77.3824 -12.901 11.9618
RightLeg  51.1833 -4.89218 -6.86952
RightFoot  -11.4806 -0.0842906 -5.61768
RightToes  0.00048216 0.542163 -0.142577
Spine  76.877 -5.75442 6.25234
Spine1  2.06086 0.174112 -6.89467
HEad  -47.8662 -6.11594 4.58909
LeftShoulder1  5.55326 -25.5204 -11.8693
LeftArm  -108.636 -64.7061 50.0031
LeftForeArm  -0.692358 -18.1801 -1.87195
LeftHand  -0.25398 0.0180481 5.50724
RightShoulder  1.54133 10.9456 2.57646
RightArm  -96.2151 60.8679 -33.6196
RightForeArm  -25.4518 15.2537 2.15331
RightHand  0.0158925 9.55483 -0.39245
LeftUpLeg  -81.1365 17.8257 -27.1008
LeftLeg  46.2378 -1.21968 -0.943765
LeftFoot  -7.45706 -0.290049 9.85556
LeftToes  1.06246e-005 4.65855e-005 -8.185e-006
257
root  39.5534 35.1458 9.20537 82.8454 88.8233 43.1876
RightUpLeg  -77.077 -12.9891 12.356
RightLeg  50.6914 -4.85024 -6.69675
RightFoot  -11.2284 -0.0700461 -5.82555
RightToes  0.00048216 0.542163 -0.142577
Spine  76.4759 -4.80902 6.44781
Spine1  2.10782 0.703323 -4.85431
HEad  -47.7782 -6.69964 3.30965
LeftShoulder1  6.67177 -26.4647 -15.29
LeftArm  -108.529 -65.1574 51.0644
LeftForeArm  -1.79573 -18.3015 -2.19192
LeftHand  -0.25398 0.0180481 5.50724
RightShoulder  1.50439 11.0915 2.16592
RightArm  -94.6146 60.1336 -32.5752
RightForeArm  -24.0907 16.207 2.7647
RightHand  0.144441 9.55376 0.601266
LeftUpLeg  -80.9403 18.0141 -27.0036
LeftLeg  45.8177 -1.23162 -0.940339
LeftFoot  -7.12385 -0.320823 9.85359
LeftToes  1.06246e-005 4.65855e-005 -8.185e-006
258
root  39.4806 35.2638 9.24274 72.7806 88.9144 33.3875
RightUpLeg  -76.4318 -12.9686 12.6678
RightLeg  49.7868 -4.7768 -6.39507
RightFoot  -10.819 -0.0461327 -5.89339
RightToes  0.00048216 0.542163 -0.142577
Spine  76.2367 -4.67668 6.59135
Spine1  1.99361 0.930762 -4.8872
HEad  -47.666 -6.59748 3.09346
LeftShoulder1  6.84564 -26.6552 -15.7484
LeftArm  -107.977 -65.6373 50.1395
LeftForeArm  -2.44217 -18.1653 -2.1309
LeftHand  -0.25398 0.0180481 5.50724
RightShoulder  1.5515 11.1912 2.45121
RightArm  -94.331 60.0764 -31.974
RightForeArm  -22.5788 16.2657 2.71532
RightHand  0.286148 9.69727 1.67913
LeftUpLeg  -80.4772 18.3623 -26.909
LeftLeg  45.0035 -1.27294 -0.951874
LeftFoot  -6.68998 -0.36773 10.0199
LeftToes  1.06246e-005 4.65855e-005 -8.185e-006
259
root  39.3755 35.4284 9.27463 69.1312 88.8882 30.2382
RightUpLeg  -75.4751 -13.152 12.8131
RightLeg  48.602 -4.63094 -5.96047
RightFoot  -10.3019 -0.0154148 -5.95493
RightToes  0.00048216 0.542163 -0.142577
Spine  75.8949 -4.81948 6.55952
Spine1  2.25214 0.888183 -5.3022
HEad  -47.6264 -6.22521 3.15778
LeftShoulder1  6.874 -26.7075 -15.793
LeftArm  -107.315 -65.7524 49.0912
LeftForeArm  -2.06408 -17.9727 -1.93484
LeftHand  -0.25398 0.0180481 5.50724
RightShoulder  1.57819 11.3171 2.55233
RightArm  -94.6435 60.3714 -31.4063
RightForeArm  -20.8026 15.8071 2.28095
RightHand  0.469067 9.51926 3.127
LeftUpLeg  -79.5296 18.6763 -26.809
LeftLeg  43.7824 -1.38089 -1.01328
LeftFoot  -6.10794 -0.42896 10.1654
LeftToes  1.06246e-005 4.65855e-005 -8.185e-006
